<?xml version="1.0" standalone="no"?>
<!DOCTYPE svg PUBLIC "-//W3C//DTD SVG 20010904//EN"
 "http://www.w3.org/TR/2001/REC-SVG-20010904/DTD/svg10.dtd">
<svg version="1.0" xmlns="http://www.w3.org/2000/svg"
 width="1296.000000pt" height="1378.000000pt" viewBox="0 0 1296.000000 1378.000000"
 preserveAspectRatio="xMidYMid meet">

<g transform="translate(0.000000,1378.000000) scale(0.100000,-0.100000)"
fill="#000000" stroke="none">
<path d="M0 6890 l0 -6890 2530 0 c1703 0 2530 3 2530 10 0 6 -4 18 -9 28 -17
31 -51 155 -51 185 0 17 -6 53 -14 81 -14 50 -30 124 -46 216 -9 48 -36 128
-50 145 -4 5 -11 33 -15 60 -4 28 -12 58 -17 67 -4 10 -13 48 -18 85 -6 38
-17 97 -25 133 -9 36 -20 90 -26 120 -6 30 -15 63 -20 73 -6 10 -21 51 -35 90
-29 87 -35 227 -9 227 8 0 15 -7 15 -15 0 -8 4 -15 8 -15 11 0 62 -78 62 -95
0 -8 4 -16 9 -20 17 -10 20 11 5 39 -7 16 -14 37 -14 47 0 10 -6 22 -12 26
-20 13 -58 71 -58 89 0 9 -13 33 -30 54 -23 29 -30 47 -28 78 0 22 -4 53 -9
69 -6 15 -19 71 -28 123 -10 52 -24 112 -31 134 -8 21 -14 49 -14 62 0 19 5
22 28 21 27 -2 27 -2 24 58 -3 66 -23 136 -58 206 -12 25 -27 74 -33 110 -11
66 -30 142 -59 239 -20 66 -22 311 -3 405 7 33 16 114 22 180 20 244 38 364
69 454 16 50 30 99 30 109 0 11 20 44 44 73 24 30 47 64 50 76 8 25 51 56 71
51 18 -4 -72 -128 -93 -128 -11 0 -13 -8 -8 -32 23 -137 27 -184 16 -216 -7
-20 -9 -48 -5 -70 4 -21 8 -62 9 -92 2 -57 30 -179 50 -216 26 -51 98 -133
133 -154 21 -13 58 -42 83 -65 25 -23 72 -57 105 -75 33 -17 67 -38 76 -46 8
-8 21 -14 27 -14 6 0 17 -6 24 -12 24 -23 77 -58 86 -58 5 0 15 -7 22 -15 14
-17 30 -20 30 -5 0 6 -5 10 -10 10 -13 0 -70 57 -70 69 0 5 -9 11 -21 14 -12
3 -18 10 -14 16 3 6 2 11 -4 11 -18 0 -101 94 -101 114 0 10 -3 17 -6 13 -8
-7 -34 17 -34 32 0 5 -9 13 -21 16 -28 9 -44 47 -30 72 8 16 6 24 -9 38 -11
10 -20 24 -20 32 0 7 -7 16 -15 19 -17 7 -21 44 -4 44 6 0 8 7 5 16 -3 8 0 22
8 30 8 7 16 19 18 25 2 6 16 12 32 12 23 0 27 3 22 21 -3 11 -6 27 -6 34 0 6
-6 12 -14 12 -9 0 -13 9 -11 25 1 14 -2 25 -7 25 -6 0 -8 7 -4 15 3 8 1 15 -4
15 -23 0 -9 50 20 72 41 30 47 54 20 83 -13 14 -19 29 -15 36 5 7 4 10 -3 5
-6 -3 -14 -1 -18 5 -3 6 -1 15 6 19 8 5 10 19 6 42 -4 23 -1 40 9 53 8 11 15
16 15 11 0 -5 6 -3 14 3 14 12 46 5 46 -10 0 -15 27 -10 33 5 4 9 14 12 26 9
25 -6 27 -18 6 -27 -21 -8 -19 -23 4 -31 11 -3 23 -15 26 -26 8 -23 34 -25 50
-2 7 9 17 13 24 9 8 -6 9 -11 1 -20 -5 -7 -7 -27 -4 -44 5 -24 16 -36 48 -51
22 -11 56 -22 74 -26 17 -4 32 -10 32 -14 0 -5 18 -11 39 -14 22 -3 55 -17 74
-31 19 -15 39 -26 43 -25 28 5 54 -3 54 -16 0 -9 7 -18 16 -22 9 -3 28 -17 42
-30 23 -21 34 -24 84 -21 32 2 57 -1 55 -6 -2 -5 -49 -10 -105 -11 -94 -1
-138 -13 -119 -31 3 -3 48 -9 99 -13 96 -8 123 -15 113 -32 -3 -5 1 -6 9 -3
10 4 16 18 16 35 0 33 3 33 80 15 38 -9 64 -10 83 -3 22 7 31 6 40 -7 17 -23
79 -37 160 -36 45 1 77 -4 91 -13 71 -47 299 -43 270 5 -3 4 -32 8 -64 8 -32
0 -70 4 -84 10 -14 5 -65 14 -113 20 -81 10 -115 20 -200 56 -17 8 -38 14 -46
14 -8 0 -17 9 -20 20 -3 14 -14 20 -34 21 -54 2 -58 4 -61 27 -3 20 -22 33
-22 14 0 -16 -44 -5 -50 12 -3 10 -10 17 -15 16 -6 0 -12 14 -15 31 -3 21 -11
33 -23 35 -10 1 -39 12 -64 24 -36 17 -48 19 -60 9 -12 -10 -16 -10 -24 2 -5
9 -9 10 -9 2 0 -7 -11 -1 -25 12 -13 14 -31 25 -40 25 -8 0 -15 5 -15 10 0 6
-11 10 -25 10 -15 0 -29 8 -36 21 -10 20 -9 21 15 17 30 -6 61 15 70 48 9 29
-19 39 -50 19 -13 -8 -32 -15 -44 -15 -11 0 -20 -7 -20 -15 0 -8 -4 -15 -10
-15 -5 0 -10 7 -10 15 0 8 5 15 10 15 6 0 10 14 10 30 0 24 -4 30 -22 30 -30
0 -45 -11 -50 -35 -3 -19 -5 -18 -31 8 -15 15 -33 27 -40 27 -16 1 -47 25 -47
37 0 6 -24 31 -54 57 -40 34 -53 51 -49 65 3 13 -6 31 -26 52 -33 34 -42 65
-15 55 9 -3 18 -6 20 -6 3 0 2 -4 -1 -10 -3 -6 1 -7 9 -4 11 4 16 0 16 -10 0
-9 7 -16 15 -16 9 0 15 9 15 25 0 14 -4 25 -10 25 -5 0 -10 6 -10 14 0 8 -14
17 -32 21 -18 4 -39 12 -47 19 -12 9 -13 6 -7 -16 4 -17 2 -28 -4 -28 -5 0
-10 5 -10 11 0 5 -5 7 -12 3 -7 -4 -8 -3 -4 5 4 6 0 14 -10 18 -14 5 -13 8 7
18 l22 13 -21 11 c-12 6 -22 18 -22 26 0 8 -7 15 -15 15 -8 0 -15 5 -15 10 0
6 -8 10 -19 10 -10 0 -23 6 -29 13 -13 16 -42 97 -42 120 0 9 -11 27 -25 38
-13 12 -27 34 -30 48 -8 35 -24 55 -62 74 -25 13 -34 27 -44 68 -7 28 -23 58
-35 68 -13 10 -23 32 -27 60 -4 29 -14 52 -31 68 -14 13 -29 36 -32 51 -4 15
-18 41 -31 58 -12 17 -20 33 -17 37 3 3 -1 16 -10 29 -10 14 -16 17 -16 8 0
-24 -15 2 -39 64 -13 36 -18 62 -12 66 11 6 21 78 14 97 -3 7 -9 10 -14 7 -5
-3 -7 10 -5 28 3 23 -3 42 -20 65 -18 23 -25 49 -29 102 -3 42 -2 71 4 71 19
0 9 85 -15 126 -14 23 -22 48 -18 57 6 17 -21 65 -48 85 -12 8 -16 23 -14 43
2 16 0 32 -5 35 -4 2 -6 11 -3 18 3 8 0 17 -6 21 -7 4 -8 11 -1 19 8 10 9 30
2 89 -1 4 -8 7 -16 7 -18 0 -34 72 -16 78 16 5 14 43 -5 88 -9 22 -17 46 -18
54 -10 85 -20 110 -52 137 -19 15 -34 37 -34 48 0 11 -7 40 -15 63 -9 26 -13
57 -9 76 3 20 0 47 -10 71 -20 47 -20 86 -1 131 15 36 12 77 -8 102 -13 16 -3
88 19 131 15 30 16 43 5 105 -26 155 -25 167 17 240 3 5 0 6 -6 2 -9 -5 -12
19 -12 89 0 73 -4 102 -17 121 -16 25 -16 26 3 24 44 -5 63 12 27 24 -24 8
-41 48 -32 73 4 11 21 25 38 31 17 6 31 17 31 25 0 23 -34 47 -58 40 -26 -6
-27 -2 -6 57 17 47 20 115 6 134 -13 16 0 51 19 54 9 1 19 -5 23 -13 5 -14 8
-14 31 1 30 19 55 12 55 -15 0 -29 17 -35 31 -10 8 17 13 19 19 8 12 -18 -7
-49 -30 -49 -23 0 -55 -44 -46 -65 8 -21 23 -19 31 5 3 11 12 20 19 20 8 0 19
7 26 15 7 8 20 15 30 15 10 0 20 7 24 15 6 16 26 21 26 7 0 -5 -9 -19 -19 -31
-16 -19 -19 -51 -5 -51 6 0 78 49 102 70 13 11 30 20 38 20 17 0 74 59 74 76
0 6 16 14 36 17 20 4 47 15 58 26 18 17 41 22 123 27 99 7 102 8 113 35 7 15
19 30 28 34 8 3 72 6 141 6 69 0 143 5 164 11 28 8 54 8 105 -1 80 -14 277
-18 310 -7 19 6 22 13 18 31 -5 21 -2 25 29 31 35 6 49 24 20 24 -9 0 -18 7
-21 15 -4 9 -19 15 -40 15 -19 0 -34 4 -34 9 0 5 -10 13 -22 17 -42 13 -234
36 -298 35 -36 0 -105 -1 -155 -1 -49 0 -103 -6 -118 -12 -20 -8 -34 -8 -50 0
-12 6 -49 19 -83 30 l-60 19 -45 -26 c-53 -31 -99 -76 -99 -96 0 -11 -11 -15
-39 -15 -25 0 -41 -5 -45 -15 -8 -23 -23 -18 -61 20 -39 38 -42 45 -21 45 20
0 31 19 18 32 -14 14 13 68 33 68 8 0 15 7 15 15 0 10 -10 15 -30 15 -20 0
-30 -5 -30 -15 0 -20 -46 -30 -66 -14 -19 16 -2 29 39 29 16 0 27 5 27 14 0
16 27 29 41 20 5 -3 9 -1 9 5 0 5 10 13 22 17 28 8 78 45 78 56 0 15 -100 9
-124 -8 -32 -20 -43 -1 -15 25 18 17 20 23 9 36 -7 8 -27 15 -44 15 -40 -2
-61 3 -77 17 -12 9 -14 0 -17 -49 -2 -60 -2 -60 23 -54 14 4 25 2 25 -3 0 -9
-56 -21 -98 -21 -20 0 -22 4 -16 23 3 12 12 29 19 37 11 13 10 19 -10 43 -13
15 -34 27 -45 27 -13 0 -20 5 -17 13 2 6 14 11 25 9 17 -2 22 2 22 17 0 12 -6
21 -12 21 -9 0 -9 3 1 9 8 5 11 16 8 23 -6 17 29 61 56 71 17 6 20 22 17 89
-1 22 5 44 13 52 17 17 11 75 -9 83 -18 7 -18 43 0 43 19 0 29 29 16 46 -9 9
-6 15 9 24 14 7 21 21 21 42 0 17 -3 28 -7 24 -4 -4 -8 -16 -8 -26 0 -26 -19
-30 -23 -6 -5 22 19 129 26 121 3 -2 14 13 24 35 11 22 24 40 29 40 4 0 20 20
34 45 24 40 34 47 88 64 33 10 56 20 50 22 -18 7 5 49 32 59 14 5 28 17 32 26
6 15 7 15 14 -3 9 -24 65 -41 81 -25 13 13 -31 73 -50 67 -6 -3 -12 0 -12 5 0
12 37 13 44 1 6 -9 63 -8 73 2 3 4 0 14 -8 24 -15 18 -16 18 36 -3 10 -4 18 2
24 18 11 30 37 52 51 43 5 -3 17 1 26 9 13 14 32 18 61 15 12 -1 24 43 17 65
-6 21 -6 21 10 -1 9 -12 13 -29 10 -38 -6 -16 -5 -16 25 -1 17 9 31 13 31 10
0 -4 9 1 20 11 12 10 18 25 16 32 -3 8 9 16 34 23 36 10 56 30 30 30 -5 0 -10
7 -10 15 0 16 42 30 64 22 8 -3 17 -3 20 0 5 5 32 8 136 17 60 5 110 22 124
41 13 19 105 35 158 27 23 -3 44 0 53 8 9 7 18 10 22 6 3 -3 1 -6 -5 -6 -7 0
-12 -4 -12 -10 0 -18 48 -11 54 8 5 15 18 18 88 17 54 -1 83 -5 86 -13 2 -7
19 -12 37 -12 24 0 37 -7 49 -25 16 -25 66 -36 66 -15 0 6 5 10 10 10 6 0 10
-7 10 -15 0 -8 -4 -15 -10 -15 -5 0 -7 -7 -3 -16 4 -11 9 -12 16 -5 15 15 28
14 25 -1 -4 -17 42 -68 60 -68 8 0 21 8 28 18 13 16 14 16 20 -5 11 -40 131
-119 151 -100 3 4 -7 17 -22 29 -81 67 -122 117 -108 131 12 13 92 -40 137
-92 46 -53 82 -81 103 -81 12 0 23 -3 25 -8 5 -12 90 -77 123 -95 78 -41 106
-50 150 -44 35 5 45 3 45 -7 0 -17 13 -22 73 -31 26 -4 53 -3 64 3 17 10 16
11 -7 20 -14 5 -49 13 -79 17 -40 5 -55 12 -58 26 -5 19 -23 27 -23 10 0 -5
-15 -11 -32 -15 -26 -5 -36 -2 -48 13 -8 11 -40 31 -72 45 -31 14 -63 35 -71
47 -9 12 -26 27 -39 33 -13 6 -28 27 -34 46 -6 18 -13 27 -16 20 -2 -8 -11
-11 -22 -7 -9 4 -14 11 -11 17 4 6 11 8 16 5 5 -4 9 1 9 9 0 26 11 19 66 -39
33 -34 64 -58 83 -61 17 -4 50 -24 73 -45 40 -36 68 -49 68 -31 0 4 -22 23
-50 42 -47 33 -49 37 -50 83 0 26 2 47 5 47 8 0 65 -41 87 -63 22 -21 124 -87
134 -87 16 0 99 -44 107 -57 4 -7 20 -13 35 -13 15 0 37 -6 48 -14 11 -8 38
-18 60 -21 21 -4 43 -10 48 -13 14 -8 -17 -22 -51 -22 -18 0 -33 -4 -33 -10 0
-15 157 -12 300 5 235 29 227 29 265 10 20 -9 52 -27 71 -40 19 -13 48 -26 63
-30 16 -3 37 -15 46 -25 9 -10 22 -17 29 -14 7 3 25 -7 40 -21 15 -14 32 -25
39 -25 6 0 37 -27 68 -60 56 -58 64 -77 75 -164 5 -36 3 -34 36 -38 15 -2 30
-7 34 -11 4 -4 7 -37 6 -74 0 -38 2 -62 4 -55 11 25 21 1 17 -40 -3 -28 1 -54
11 -73 12 -22 12 -31 3 -37 -9 -6 -9 -10 1 -20 6 -6 12 -20 12 -29 0 -9 7 -19
15 -23 8 -3 18 -24 21 -46 7 -40 34 -68 54 -55 6 4 10 -9 10 -29 0 -27 -3 -34
-15 -30 -12 5 -15 -2 -15 -30 0 -23 5 -39 15 -42 25 -10 17 -21 -15 -21 -16 0
-30 5 -30 11 0 6 -11 -2 -25 -18 -32 -37 -31 -43 5 -64 29 -17 66 -93 52 -107
-4 -3 -2 -9 3 -13 16 -11 34 -49 28 -56 -4 -3 -22 -6 -40 -6 -23 0 -33 -4 -30
-12 4 -14 36 -15 82 -3 24 6 28 5 18 -5 -9 -9 -9 -19 -2 -32 7 -14 7 -23 -2
-34 -7 -9 -8 -14 -1 -14 6 0 17 -12 24 -27 22 -45 36 -39 44 17 6 47 18 60 20
22 2 -39 29 -82 50 -82 29 0 42 -18 43 -60 1 -19 3 -46 5 -60 2 -14 4 -33 5
-43 0 -10 5 -16 10 -13 12 8 21 -29 21 -86 0 -27 5 -48 10 -48 15 0 12 -27 -4
-33 -9 -4 -12 -14 -9 -26 3 -12 -1 -29 -8 -38 -11 -13 -11 -17 -1 -20 6 -3 10
-9 6 -14 -3 -5 2 -9 10 -9 23 0 28 -34 12 -79 -15 -45 -12 -76 12 -103 8 -10
12 -24 9 -33 -4 -8 -3 -15 2 -15 4 0 8 -6 8 -12 0 -7 9 -44 18 -83 20 -78 26
-285 12 -370 -6 -31 -5 -63 2 -85 7 -24 7 -62 0 -120 -14 -121 -19 -213 -24
-390 -6 -220 -12 -280 -30 -300 -14 -15 -14 -21 -4 -38 10 -16 11 -31 2 -69
-7 -26 -10 -86 -9 -133 3 -72 0 -92 -19 -132 -12 -25 -30 -76 -40 -112 -10
-36 -22 -66 -28 -66 -10 0 -5 -61 8 -92 5 -13 2 -18 -9 -18 -9 0 -16 5 -16 10
0 6 -4 10 -10 10 -5 0 -10 -18 -10 -40 0 -22 4 -40 10 -40 13 0 6 -108 -8
-122 -7 -7 -12 -20 -12 -30 0 -10 -7 -35 -16 -56 -15 -36 -16 -36 -27 -16 -10
19 -14 20 -25 8 -7 -8 -8 -14 -3 -14 18 0 22 -39 8 -67 -8 -15 -18 -47 -22
-70 -3 -23 -13 -47 -21 -54 -8 -6 -14 -16 -14 -22 0 -5 -16 -30 -36 -53 -19
-24 -38 -56 -40 -71 -3 -16 -9 -32 -15 -37 -5 -6 -9 -18 -9 -27 0 -10 -5 -19
-11 -21 -6 -2 -12 -15 -13 -28 -1 -18 -7 -25 -21 -25 -16 0 -21 -8 -23 -37 -3
-37 -9 -42 -44 -39 -10 1 -18 -3 -18 -8 0 -6 -6 -11 -13 -11 -7 0 -20 -18 -30
-40 -9 -22 -21 -40 -27 -40 -5 0 -10 -7 -10 -15 0 -9 -7 -18 -15 -21 -8 -4
-15 -13 -15 -21 0 -9 -6 -13 -15 -10 -8 4 -17 2 -20 -3 -3 -4 1 -10 7 -13 10
-3 11 -9 0 -26 -6 -11 -12 -27 -12 -34 0 -7 -9 -19 -20 -27 -11 -8 -20 -20
-20 -26 0 -14 -36 -52 -73 -79 -16 -11 -40 -39 -54 -63 -14 -23 -32 -42 -40
-42 -18 0 -42 -28 -43 -50 -1 -27 -36 -59 -58 -53 -15 4 -24 -2 -35 -24 -8
-15 -18 -27 -21 -25 -3 1 -17 0 -30 -4 -19 -4 -26 -14 -28 -37 l-3 -32 -65 3
c-65 3 -65 3 -77 -28 -8 -20 -23 -35 -42 -43 -17 -6 -31 -17 -31 -24 0 -7 7
-10 15 -7 8 4 15 2 15 -4 0 -6 -14 -15 -31 -21 -21 -7 -30 -16 -27 -28 2 -10
10 -18 18 -18 22 0 25 -37 4 -52 -23 -17 -34 -17 -34 1 0 7 -7 19 -15 26 -10
9 -15 9 -15 1 0 -6 -5 -11 -11 -11 -5 0 -7 5 -4 10 3 6 1 10 -4 10 -6 0 -11
-9 -11 -20 0 -11 6 -20 13 -20 6 0 17 -11 23 -25 10 -21 9 -26 -12 -39 -14
-10 -25 -12 -29 -6 -3 6 -13 10 -21 10 -11 0 -14 -9 -12 -32 3 -30 1 -33 -22
-30 -14 2 -27 9 -29 15 -2 5 -9 -3 -15 -19 -9 -21 -19 -29 -42 -30 -39 -2
-122 -42 -135 -65 -5 -11 -17 -19 -26 -19 -9 0 -14 -3 -11 -6 9 -8 123 15 126
26 2 6 8 7 14 4 6 -4 14 -1 18 7 11 17 39 20 63 8 15 -9 19 -7 24 10 3 12 12
21 19 21 8 0 13 6 12 12 -2 8 9 14 24 16 20 2 30 10 34 27 6 25 36 39 52 23
11 -11 52 19 52 39 0 7 6 14 13 14 6 1 19 2 27 3 8 0 23 -7 33 -16 27 -27 87
-21 87 8 0 8 11 24 25 36 14 12 25 29 25 39 0 17 -18 37 -33 37 -5 0 -11 3
-15 6 -3 3 6 6 21 6 17 0 28 -7 32 -20 3 -11 10 -20 14 -20 16 0 33 29 27 47
-4 12 1 23 15 31 18 11 23 10 38 -7 10 -12 27 -21 38 -21 27 0 93 28 93 39 0
17 31 41 53 41 12 0 35 12 51 26 26 23 28 30 23 69 -6 38 -4 45 13 50 11 3 24
4 29 1 5 -3 21 0 35 8 l27 13 -23 8 c-13 4 -31 6 -40 5 -12 -1 -16 4 -12 14 3
8 12 12 20 9 8 -3 14 0 14 6 0 17 37 13 56 -6 12 -13 32 -18 66 -17 46 1 48 1
42 -25 -3 -14 -10 -36 -16 -48 -8 -17 -7 -28 5 -46 10 -16 16 -50 17 -98 2
-99 2 -99 -14 -99 -10 0 -16 -17 -19 -57 -3 -32 -7 -69 -10 -83 -2 -14 0 -33
5 -43 6 -12 6 -23 -1 -31 -7 -8 -8 -32 -5 -59 5 -38 4 -48 -10 -53 -9 -3 -13
-10 -10 -15 10 -16 43 -9 54 11 6 11 15 20 20 20 16 0 11 -27 -5 -34 -8 -3
-20 -17 -25 -31 -6 -15 -21 -41 -34 -58 -13 -18 -30 -50 -37 -72 -8 -22 -18
-46 -24 -54 -13 -18 -111 -124 -157 -172 -21 -21 -38 -43 -38 -49 0 -5 -4 -10
-8 -10 -17 0 -82 -66 -82 -82 0 -12 -5 -15 -16 -11 -10 4 -22 0 -28 -9 -6 -8
-24 -22 -41 -31 -16 -8 -41 -25 -54 -36 -13 -12 -30 -21 -37 -21 -7 0 -15 -8
-18 -17 -6 -17 -99 -83 -117 -83 -5 0 -9 -4 -9 -10 0 -5 -17 -18 -37 -29 -21
-10 -50 -30 -66 -45 -15 -14 -34 -23 -42 -20 -8 4 -17 -1 -21 -9 -3 -8 -21
-18 -40 -21 -19 -4 -34 -10 -34 -14 0 -8 -43 -28 -83 -38 -16 -3 -31 -12 -33
-19 -3 -7 -18 -15 -35 -19 -17 -3 -29 -12 -29 -21 0 -9 -9 -15 -24 -15 -14 0
-28 -5 -31 -10 -3 -6 -13 -10 -20 -10 -8 0 -36 -13 -62 -29 -27 -16 -73 -36
-103 -45 -33 -9 -66 -27 -82 -44 -26 -28 -64 -42 -114 -42 -13 0 -27 -6 -31
-13 -4 -7 -28 -19 -53 -26 -25 -7 -54 -17 -64 -23 -39 -20 -222 -8 -263 18
-12 8 -29 14 -38 14 -26 0 -108 54 -166 110 -15 14 -48 36 -75 48 -27 13 -56
28 -64 33 -8 5 -22 12 -30 16 -8 4 -21 13 -29 20 -7 8 -16 11 -19 8 -3 -3 7
-17 23 -30 17 -13 37 -29 45 -37 9 -7 33 -22 55 -33 22 -11 57 -37 80 -58 22
-21 53 -45 68 -53 15 -8 38 -23 50 -34 82 -70 124 -100 137 -100 9 0 27 -8 40
-17 31 -22 129 -22 182 1 21 9 49 16 64 16 15 0 44 14 67 33 45 36 96 67 212
127 44 23 83 46 86 51 8 14 81 49 101 49 9 0 19 4 22 9 8 12 83 51 100 51 7 0
28 15 47 33 19 18 42 36 52 40 9 3 17 11 17 17 0 5 11 10 23 10 13 0 44 11 68
25 24 14 50 27 57 30 46 19 66 31 117 70 22 17 56 39 75 49 19 11 55 34 79 53
24 18 49 33 55 33 13 0 68 27 106 52 14 10 45 28 70 41 29 15 46 31 48 45 2
12 28 43 58 69 59 51 81 82 131 187 19 38 47 85 62 105 16 20 39 59 51 86 13
28 30 63 38 80 10 18 19 72 23 140 8 121 20 191 33 189 4 -1 18 -11 30 -22 21
-17 23 -31 29 -153 9 -171 -16 -383 -58 -489 -7 -19 -21 -91 -30 -160 -19
-141 -54 -286 -91 -375 -26 -61 -51 -146 -61 -200 -26 -157 -61 -323 -72 -344
-5 -9 -11 -33 -15 -53 -4 -20 -13 -50 -21 -65 -8 -15 -15 -32 -15 -38 0 -5
-14 -43 -30 -84 -17 -40 -30 -87 -30 -103 0 -16 -6 -42 -14 -56 -18 -33 -79
-231 -101 -327 -8 -38 -22 -95 -30 -125 -7 -30 -21 -86 -30 -125 -21 -87 -52
-190 -71 -232 -8 -17 -14 -42 -14 -56 0 -13 -7 -44 -15 -67 -8 -23 -15 -60
-15 -82 0 -22 -5 -48 -10 -58 -6 -10 -14 -45 -19 -77 -14 -92 -31 -174 -47
-223 -8 -25 -14 -53 -14 -63 0 -11 -7 -33 -14 -50 -15 -32 -46 -145 -46 -166
0 -8 714 -11 2625 -11 l2625 0 0 6890 0 6890 -6480 0 -6480 0 0 -6890z m7125
3220 c3 -5 1 -10 -4 -10 -6 0 -11 5 -11 10 0 6 2 10 4 10 3 0 8 -4 11 -10z
m-65 -27 c8 -31 99 -145 121 -150 10 -3 19 -9 19 -14 0 -4 10 -19 23 -32 18
-19 50 -67 65 -99 2 -5 -3 -8 -12 -8 -9 0 -16 4 -16 9 0 5 -13 12 -30 16 -16
4 -30 11 -30 16 0 5 -4 9 -10 9 -33 0 -91 38 -110 72 -12 21 -25 38 -31 38 -5
0 -9 7 -9 15 0 9 -7 18 -15 21 -8 4 -15 12 -15 20 0 7 -6 17 -13 21 -16 10
-47 59 -47 74 0 6 9 9 23 6 12 -3 31 -1 42 3 27 12 39 7 45 -17z m160 12 c7
-8 17 -15 23 -15 5 0 15 -7 22 -16 8 -11 26 -16 56 -16 49 1 107 -14 126 -34
28 -28 5 -33 -41 -9 -20 11 -33 12 -40 5 -15 -15 24 -41 57 -37 17 2 27 -1 27
-10 0 -17 37 -17 43 0 5 15 57 -10 57 -29 0 -6 7 -15 15 -18 9 -3 15 -14 13
-23 -2 -10 2 -17 9 -16 7 2 24 -17 38 -42 30 -50 27 -85 -7 -85 -11 0 -35 -7
-53 -16 -58 -27 -129 -6 -229 68 -50 37 -87 73 -91 87 -8 32 -46 81 -62 81 -7
0 -13 9 -13 20 0 11 -7 23 -15 26 -16 7 -21 49 -6 59 5 3 12 -4 16 -15 3 -11
13 -20 21 -20 8 0 14 -5 14 -11 0 -5 5 -7 10 -4 7 4 7 11 2 18 -12 16 -21 67
-12 67 4 0 13 -7 20 -15z m-515 -95 c3 -5 1 -10 -4 -10 -6 0 -11 5 -11 10 0 6
2 10 4 10 3 0 8 -4 11 -10z m175 -71 c0 -5 -4 -9 -10 -9 -5 0 -10 7 -10 16 0
8 5 12 10 9 6 -3 10 -10 10 -16z m-2056 -218 c3 -5 -3 -11 -14 -14 -20 -5 -26
3 -13 16 9 10 21 9 27 -2z m3636 -538 c0 -5 -5 -15 -10 -23 -8 -12 -10 -11
-10 8 0 12 5 22 10 22 6 0 10 -3 10 -7z m33 -156 c1 -14 -2 -27 -8 -29 -5 -2
-11 15 -13 37 -2 29 0 37 8 29 6 -6 12 -23 13 -37z m-3919 -318 c-3 -5 -10 -7
-15 -3 -5 3 -7 10 -3 15 3 5 10 7 15 3 5 -3 7 -10 3 -15z m-184 -126 c0 -5 22
-6 49 -5 41 3 51 1 60 -16 9 -16 7 -24 -5 -37 -12 -12 -16 -33 -15 -86 1 -38
-2 -69 -6 -69 -5 0 -21 -18 -37 -40 -31 -41 -46 -50 -46 -26 0 7 -7 19 -15 26
-22 18 -18 39 9 50 28 10 43 30 29 39 -6 3 -13 23 -17 44 -6 31 -11 37 -31 37
-18 0 -23 4 -19 15 4 9 0 15 -10 15 -19 0 -21 11 -4 28 14 14 38 -2 38 -24 0
-8 4 -14 8 -14 10 0 9 36 -1 46 -10 11 -8 24 3 24 6 0 10 -3 10 -7z m-48 -136
c-6 -12 -13 -29 -15 -37 -3 -8 -6 -2 -6 13 -1 15 5 34 12 41 17 19 22 10 9
-17z m276 16 c2 -8 -6 -13 -22 -13 -25 0 -33 10 -19 24 10 10 36 3 41 -11z
m-72 -50 c-10 -10 -19 5 -10 18 6 11 8 11 12 0 2 -7 1 -15 -2 -18z m106 -75
c-9 -9 -15 -9 -24 0 -10 10 -10 15 2 22 20 12 38 -6 22 -22z m-317 -123 c2
-16 -2 -25 -11 -25 -16 0 -17 5 -8 38 8 27 16 22 19 -13z m45 10 c0 -8 -4 -15
-9 -15 -13 0 -22 16 -14 24 11 11 23 6 23 -9z m128 -75 c-20 -34 -25 -37 -37
-25 -13 13 -12 18 10 39 39 39 53 32 27 -14z m5277 -340 c102 -50 166 -120
190 -205 54 -195 61 -254 40 -343 -28 -116 -86 -234 -144 -290 -27 -26 -54
-58 -61 -72 -7 -14 -37 -57 -66 -95 -42 -56 -62 -95 -94 -190 -90 -262 -177
-461 -241 -550 -19 -27 -45 -71 -58 -97 -30 -63 -139 -165 -186 -174 -84 -15
-174 26 -212 99 -18 36 -19 148 -1 177 17 26 50 33 65 14 16 -21 53 -9 53 17
0 11 -11 35 -24 52 -25 34 -44 137 -31 176 5 18 15 21 68 22 34 0 82 4 107 7
45 7 45 8 42 44 -3 34 3 43 57 96 57 57 63 68 84 160 8 33 -16 28 -61 -15 -22
-21 -57 -55 -79 -76 -29 -28 -56 -42 -99 -52 -74 -18 -67 -18 -94 5 -20 18
-22 25 -16 87 11 134 23 199 45 238 17 32 20 50 15 91 -5 40 -2 58 15 90 12
21 21 45 21 52 0 7 11 17 25 22 14 5 25 14 25 19 0 10 -25 33 -31 27 -7 -7 -3
144 5 209 5 39 19 80 40 117 31 55 96 118 121 118 6 0 35 23 63 50 28 28 55
50 60 50 5 0 15 6 21 14 23 27 156 100 206 112 69 17 84 16 130 -6z m-6226
-307 c14 -11 34 -22 44 -26 11 -4 21 -16 24 -26 5 -21 29 -35 44 -25 5 3 13
-6 18 -19 12 -32 28 -42 45 -28 9 8 28 -4 74 -47 34 -32 62 -64 62 -70 0 -6
11 -21 24 -34 26 -26 37 -73 40 -188 3 -72 17 -210 32 -297 5 -34 14 -47 39
-63 34 -21 45 -38 45 -71 0 -11 11 -45 24 -77 19 -45 23 -70 20 -121 -2 -35
-6 -66 -8 -68 -10 -10 -138 72 -153 98 -37 62 -122 40 -123 -33 0 -36 5 -41
75 -93 83 -62 95 -78 95 -128 0 -38 14 -47 82 -47 27 0 47 -8 70 -29 30 -27
31 -30 19 -59 -18 -42 -38 -59 -53 -44 -7 7 -19 12 -28 12 -9 0 -26 10 -38 23
-11 12 -43 31 -71 42 -27 10 -48 23 -45 27 3 4 -11 8 -30 8 -41 0 -45 -11 -16
-47 11 -14 20 -32 20 -39 0 -18 47 -64 65 -64 8 0 19 -9 25 -20 8 -15 6 -21
-9 -29 -17 -9 -18 -19 -14 -76 4 -58 3 -65 -14 -65 -11 0 -24 12 -31 28 -21
46 -40 75 -60 92 -11 8 -38 47 -61 85 -23 39 -46 77 -51 85 -5 8 -16 31 -25
50 -8 19 -28 53 -45 75 -16 22 -32 53 -36 69 -3 15 -17 44 -30 63 -13 20 -24
41 -24 47 0 6 -23 46 -50 90 -28 43 -60 97 -71 120 -12 22 -38 57 -58 77 -39
38 -132 192 -149 249 -21 66 -44 271 -37 324 18 125 90 246 170 283 41 18 140
11 174 -14z m579 -1581 c9 -6 5 -12 -13 -20 -14 -7 -23 -17 -20 -22 3 -6 -1
-10 -9 -10 -12 0 -13 5 -5 30 11 30 24 36 47 22z m-38 -94 c0 -36 64 -64 76
-33 9 23 42 18 69 -11 20 -21 25 -38 25 -79 0 -95 -46 -109 -215 -66 -50 12
-96 63 -93 103 1 18 7 27 14 24 7 -3 18 2 24 10 7 8 16 14 21 14 4 0 19 11 33
25 27 27 46 32 46 13z m4650 -328 c0 -5 -2 -10 -4 -10 -3 0 -8 5 -11 10 -3 6
-1 10 4 10 6 0 11 -4 11 -10z m-715 -1530 c-8 -13 -44 -19 -42 -6 1 6 6 14 11
18 12 8 37 -2 31 -12z m-378 -42 c-3 -7 -5 -2 -5 12 0 14 2 19 5 13 2 -7 2
-19 0 -25z m263 -22 c0 -16 -18 -31 -27 -22 -8 8 5 36 17 36 5 0 10 -6 10 -14z
m-270 -36 c0 -10 6 -21 13 -23 9 -4 8 -8 -3 -16 -11 -8 -17 -5 -22 10 -5 13
-14 19 -23 15 -18 -6 -19 -1 -5 24 12 23 40 16 40 -10z m43 -111 c-17 -17 -37
-1 -22 17 8 10 15 12 23 4 7 -7 7 -13 -1 -21z"/>
<path d="M9250 6221 c0 -15 16 -22 35 -15 13 5 14 8 3 15 -18 12 -38 11 -38 0z"/>
<path d="M9191 6180 c-13 -11 -35 -20 -48 -20 l-26 0 26 -20 c14 -11 29 -29
32 -40 4 -11 10 -18 15 -15 5 3 7 12 4 20 -3 7 4 22 15 32 20 16 30 63 14 63
-5 -1 -19 -10 -32 -20z"/>
<path d="M3662 7343 c-10 -4 -10 -8 -1 -19 16 -20 29 -17 29 6 0 20 -5 23 -28
13z"/>
<path d="M3652 6368 c3 -22 33 -47 43 -36 9 9 -12 45 -30 52 -12 4 -16 1 -13
-16z"/>
<path d="M3710 6298 c0 -9 9 -26 21 -39 l20 -24 -7 25 c-3 14 -12 32 -20 40
-12 12 -14 12 -14 -2z"/>
<path d="M3835 6120 c-3 -6 1 -7 9 -4 18 7 21 14 7 14 -6 0 -13 -4 -16 -10z"/>
<path d="M5797 10093 c-4 -3 -7 -12 -7 -20 0 -15 26 -18 34 -4 7 11 -18 33
-27 24z"/>
<path d="M5410 10006 c0 -22 17 -28 24 -10 9 22 8 24 -9 24 -8 0 -15 -6 -15
-14z"/>
<path d="M5147 9823 c-12 -11 -8 -23 8 -23 8 0 15 7 15 15 0 16 -12 20 -23 8z"/>
<path d="M4550 9364 c0 -9 5 -14 12 -12 18 6 21 28 4 28 -9 0 -16 -7 -16 -16z"/>
<path d="M4500 8860 c0 -5 5 -10 11 -10 5 0 7 5 4 10 -3 6 -8 10 -11 10 -2 0
-4 -4 -4 -10z"/>
<path d="M8420 8660 c0 -5 4 -10 9 -10 6 0 13 5 16 10 3 6 -1 10 -9 10 -9 0
-16 -4 -16 -10z"/>
<path d="M8465 8650 c3 -5 8 -10 11 -10 2 0 4 5 4 10 0 6 -5 10 -11 10 -5 0
-7 -4 -4 -10z"/>
<path d="M8033 8642 c-12 -2 -20 -9 -17 -16 3 -8 -7 -12 -35 -11 -21 0 -37 3
-35 7 7 11 -16 20 -29 11 -7 -5 -35 -15 -64 -22 -39 -10 -57 -10 -73 -1 -25
14 -96 9 -225 -14 -93 -17 -121 -25 -191 -57 -22 -11 -49 -19 -61 -19 -11 0
-28 -9 -38 -20 -10 -11 -28 -20 -39 -20 -16 0 -25 -11 -37 -49 l-17 -50 39
-30 38 -31 67 16 c37 8 73 13 80 10 7 -3 44 6 81 20 37 14 79 28 93 31 14 2
35 9 46 15 15 7 32 7 56 -1 23 -8 44 -8 68 -1 43 12 97 13 104 1 3 -5 62 -9
130 -9 194 -2 309 -26 364 -77 15 -14 37 -25 50 -25 13 0 30 -7 38 -15 9 -8
22 -15 30 -15 25 0 15 24 -21 53 -36 29 -47 51 -20 41 19 -8 19 -4 0 34 -9 17
-26 34 -38 38 -12 3 -31 14 -42 24 -11 9 -59 36 -107 59 -47 24 -94 51 -104
62 -9 10 -23 19 -31 19 -7 0 -13 9 -13 19 0 21 -15 29 -47 23z"/>
<path d="M8545 8320 c3 -5 10 -10 16 -10 5 0 9 5 9 10 0 6 -7 10 -16 10 -8 0
-12 -4 -9 -10z"/>
<path d="M7675 8120 c4 -6 11 -8 16 -5 14 9 11 15 -7 15 -8 0 -12 -5 -9 -10z"/>
<path d="M7760 8126 c0 -9 40 -13 46 -5 3 5 -6 9 -20 9 -14 0 -26 -2 -26 -4z"/>
<path d="M7825 8120 c3 -5 11 -10 16 -10 6 0 7 5 4 10 -3 6 -11 10 -16 10 -6
0 -7 -4 -4 -10z"/>
<path d="M7906 8103 c-10 -10 5 -23 25 -23 12 0 23 -10 29 -26 13 -34 15 -31
-23 -43 -22 -8 -64 -9 -126 -3 -103 9 -201 1 -300 -24 -81 -20 -98 -28 -106
-54 -3 -11 -15 -20 -26 -20 -10 0 -19 -5 -19 -11 0 -6 11 -8 28 -4 26 5 32 1
62 -47 19 -29 40 -64 48 -78 7 -14 27 -39 44 -57 17 -17 27 -36 24 -42 -10
-16 -100 -13 -163 5 -30 9 -66 13 -80 9 -52 -13 -122 75 -90 114 6 7 36 29 67
49 52 33 56 51 7 38 -28 -7 -99 -73 -117 -108 -7 -16 -17 -28 -22 -28 -13 0
-63 -60 -70 -86 -10 -39 1 -67 26 -59 91 26 172 31 591 35 17 0 46 1 65 1 44
2 72 1 136 -7 44 -5 57 -2 93 20 47 30 105 35 115 9 5 -12 10 -13 18 -5 7 7
28 9 52 6 52 -7 88 15 67 40 -9 10 -12 30 -8 55 3 23 0 44 -6 50 -9 9 -8 14 3
21 12 7 12 12 0 34 -7 14 -21 28 -32 32 -20 6 -24 19 -8 29 20 12 9 42 -27 76
-38 36 -92 69 -113 69 -7 0 -26 6 -43 14 -35 15 -112 27 -121 19z m94 -123 c0
-5 -2 -10 -4 -10 -3 0 -8 5 -11 10 -3 6 -1 10 4 10 6 0 11 -4 11 -10z m180
-40 c0 -13 -11 -13 -30 0 -12 8 -11 10 8 10 12 0 22 -4 22 -10z m-452 -42 c27
-27 2 -98 -35 -98 -17 0 -18 96 0 103 19 8 22 8 35 -5z m-90 -51 c3 -51 -14
-71 -43 -47 -18 15 -20 86 -2 93 30 13 42 2 45 -46z m342 15 c47 -31 51 -41
32 -71 -21 -33 -38 -47 -86 -71 -70 -35 -106 -22 -70 25 8 11 24 50 35 87 22
74 23 75 89 30z"/>
<path d="M7490 8090 c0 -13 20 -13 40 0 12 8 9 10 -12 10 -16 0 -28 -4 -28
-10z"/>
<path d="M5245 7960 c-11 -5 -36 -9 -55 -10 -19 0 -55 -9 -79 -20 -24 -11 -52
-20 -63 -20 -32 0 -166 -69 -188 -97 -11 -14 -20 -35 -20 -47 0 -11 -9 -32
-20 -46 -26 -33 -25 -78 2 -107 l21 -23 -21 -23 c-24 -26 -29 -59 -9 -74 35
-27 150 -47 192 -32 6 2 26 -2 46 -9 26 -9 44 -10 64 -2 19 7 38 7 65 -1 29
-9 62 -9 134 0 53 7 101 9 107 5 11 -7 58 42 59 62 0 6 11 17 25 24 43 23 95
99 95 139 0 70 8 81 56 81 23 0 45 -4 49 -9 8 -14 65 -42 100 -50 42 -9 46
-50 9 -94 -26 -31 -35 -35 -164 -67 -24 -6 -47 -15 -50 -19 -3 -5 -22 -12 -43
-17 -36 -8 -50 -31 -17 -27 8 1 35 4 60 8 25 3 74 13 110 22 69 17 179 23 220
10 35 -10 54 5 46 37 -3 14 -13 31 -22 38 -22 18 -39 37 -76 81 -17 21 -55 49
-84 63 -30 14 -62 33 -71 42 -16 17 -41 26 -153 59 -53 16 -261 21 -359 10
-20 -2 -28 -2 -19 0 9 2 24 15 32 29 10 15 26 24 41 24 14 0 25 5 25 10 0 6
10 15 23 20 21 8 20 9 -8 10 -16 1 -24 4 -17 7 14 6 6 23 -11 22 -7 0 -21 -4
-32 -9z m216 -220 c12 -7 19 -21 19 -39 0 -32 -31 -78 -47 -68 -16 10 -25 87
-12 103 14 17 15 17 40 4z m-97 -6 c17 -7 22 -69 7 -92 -15 -25 -45 -9 -53 28
-12 60 3 81 46 64z m-199 -67 c15 -44 57 -101 91 -123 34 -23 30 -34 -15 -34
-43 0 -112 28 -155 64 -32 26 -30 58 5 76 10 6 19 16 19 23 0 16 21 38 33 34
5 -1 15 -19 22 -40z m725 -77 c0 -5 -7 -10 -15 -10 -8 0 -15 5 -15 10 0 6 7
10 15 10 8 0 15 -4 15 -10z"/>
<path d="M5368 7963 c12 -2 30 -2 40 0 9 3 -1 5 -23 4 -22 0 -30 -2 -17 -4z"/>
<path d="M4340 7939 c0 -11 5 -17 10 -14 6 3 10 13 10 21 0 8 -4 14 -10 14 -5
0 -10 -9 -10 -21z"/>
<path d="M5530 7941 l-25 -7 25 -7 c40 -11 72 -8 68 6 -5 14 -34 18 -68 8z"/>
<path d="M8783 7913 c-18 -6 -16 -23 1 -23 17 0 30 16 19 23 -5 2 -14 2 -20 0z"/>
<path d="M5650 7900 c20 -13 33 -13 25 0 -3 6 -14 10 -23 10 -15 0 -15 -2 -2
-10z"/>
<path d="M7185 7880 c-3 -5 -1 -10 4 -10 6 0 11 5 11 10 0 6 -2 10 -4 10 -3 0
-8 -4 -11 -10z"/>
<path d="M6210 7495 c0 -14 4 -25 9 -25 5 0 8 11 7 25 -1 33 -16 33 -16 0z"/>
<path d="M6197 7449 c-9 -6 -17 -21 -17 -34 0 -14 -4 -25 -10 -25 -5 0 -10
-10 -9 -22 0 -19 2 -20 7 -5 4 9 21 26 38 36 54 33 45 80 -9 50z"/>
<path d="M6110 6623 c-30 -9 -65 -27 -82 -41 -25 -21 -71 -121 -70 -154 0 -15
-3 -28 -8 -28 -11 0 -21 -30 -15 -41 10 -15 44 14 50 43 8 33 87 116 119 124
24 6 53 58 48 87 -3 17 -14 20 -42 10z"/>
<path d="M6897 6308 c-41 -20 -77 -70 -77 -104 0 -17 8 -23 43 -28 64 -11 71
-10 126 24 61 38 66 62 19 98 -34 27 -72 30 -111 10z"/>
<path d="M6271 6273 c-36 -7 -90 -52 -97 -80 -15 -57 66 -89 138 -54 24 11 58
24 77 27 48 10 50 31 8 71 -37 35 -78 46 -126 36z"/>
<path d="M4591 5424 c-11 -13 -11 -18 1 -31 14 -13 16 -11 20 16 5 34 0 38
-21 15z"/>
<path d="M6830 5355 c-9 -11 -23 -15 -41 -11 -22 4 -33 -1 -53 -25 -30 -35
-32 -45 -11 -65 31 -32 16 -37 -157 -47 -60 -4 -69 -2 -89 19 -12 13 -21 24
-18 24 24 3 85 13 87 15 9 8 -41 46 -55 41 -8 -3 -24 1 -36 9 -30 21 -53 19
-88 -7 -24 -18 -32 -20 -38 -9 -6 10 -17 10 -47 2 -22 -6 -51 -11 -65 -11 -57
0 -131 -31 -173 -73 -23 -23 -61 -59 -84 -79 -37 -32 -57 -78 -34 -78 5 0 26
-15 48 -34 21 -18 57 -39 79 -46 22 -7 49 -16 60 -21 69 -27 145 -13 145 26 0
11 -4 16 -8 10 -4 -5 -15 -11 -25 -13 -16 -3 -18 3 -15 44 3 53 28 76 28 26 0
-17 6 -32 15 -35 11 -5 16 7 21 53 4 33 11 60 17 60 6 0 7 -3 4 -6 -10 -10 12
-44 27 -44 21 0 27 27 11 44 -26 26 -17 31 63 34 43 2 86 9 98 17 16 10 24 11
33 2 11 -11 35 -15 111 -18 14 -1 39 4 55 11 17 7 63 14 104 16 80 3 157 -22
168 -55 18 -51 60 -64 93 -31 l20 20 11 -27 c5 -14 8 -32 5 -38 -2 -7 0 -18 5
-26 6 -11 11 -11 21 -1 6 6 28 12 48 12 43 0 53 6 74 47 9 18 30 43 46 55 26
19 30 27 24 53 -10 50 -30 71 -100 105 -70 33 -174 53 -226 43 -15 -3 -34 -1
-40 4 -7 6 -34 13 -59 17 -36 5 -49 3 -59 -9z m42 -67 c-6 -6 -15 -8 -19 -4
-4 4 -1 11 7 16 19 12 27 3 12 -12z m-459 -4 c9 -4 17 -10 17 -14 0 -12 -48
-18 -59 -7 -12 12 -2 40 13 32 6 -3 19 -8 29 -11z m387 -3 c0 -21 -29 -36 -43
-22 -5 5 0 15 14 25 29 20 29 20 29 -3z m-750 -211 c0 -5 -4 -10 -10 -10 -5 0
-10 5 -10 10 0 6 5 10 10 10 6 0 10 -4 10 -10z"/>
<path d="M6630 5271 c0 -6 5 -13 10 -16 6 -3 10 1 10 9 0 9 -4 16 -10 16 -5 0
-10 -4 -10 -9z"/>
<path d="M7020 5026 c0 -18 17 -29 30 -21 8 5 7 11 -1 21 -15 18 -29 18 -29 0z"/>
<path d="M6087 4854 c-15 -15 -7 -45 11 -42 9 2 17 12 17 22 0 20 -16 31 -28
20z"/>
<path d="M5277 4163 c-4 -3 -7 -14 -7 -24 0 -15 4 -17 24 -9 17 6 26 5 30 -3
3 -9 5 -9 5 0 1 13 -26 43 -38 43 -4 0 -11 -3 -14 -7z"/>
<path d="M5370 4114 c0 -10 50 -54 61 -54 19 0 9 -48 -11 -53 -11 -3 -20 -10
-20 -16 0 -18 35 -12 64 10 l26 21 18 -22 c12 -15 26 -21 42 -18 24 3 24 4
-12 28 -21 14 -38 33 -38 43 0 34 -49 67 -99 67 -17 0 -31 -3 -31 -6z"/>
<path d="M5303 4095 c-3 -9 -3 -18 0 -22 10 -10 37 6 37 22 0 20 -29 20 -37 0z"/>
<path d="M5510 4085 c0 -17 2 -18 24 -9 23 9 20 24 -4 24 -11 0 -20 -7 -20
-15z"/>
<path d="M5360 4050 c0 -5 5 -10 10 -10 6 0 10 5 10 10 0 6 -4 10 -10 10 -5 0
-10 -4 -10 -10z"/>
<path d="M5057 3874 c-14 -14 -6 -24 19 -24 16 0 24 5 22 13 -5 14 -31 21 -41
11z"/>
<path d="M5643 3866 c5 -14 39 -15 44 -1 1 6 -8 11 -22 11 -16 1 -24 -3 -22
-10z"/>
<path d="M7620 3666 c0 -9 5 -16 10 -16 6 0 10 4 10 9 0 6 -4 13 -10 16 -5 3
-10 -1 -10 -9z"/>
<path d="M7711 3601 c-35 -33 -54 -75 -46 -102 11 -34 52 -22 88 24 34 46 41
72 22 91 -22 22 -28 21 -64 -13z"/>
<path d="M7010 3488 c-36 -5 -87 -11 -115 -13 -80 -5 -133 -17 -139 -30 -4
-10 12 -12 72 -8 42 2 106 4 141 4 36 -1 70 4 78 11 8 7 29 11 47 10 26 -2 32
1 32 18 0 23 -10 23 -116 8z"/>
<path d="M6656 3452 c-3 -6 -1 -14 5 -17 15 -10 25 3 12 16 -7 7 -13 7 -17 1z"/>
<path d="M5365 2850 c3 -5 13 -10 21 -10 8 0 14 5 14 10 0 6 -9 10 -21 10 -11
0 -17 -4 -14 -10z"/>
<path d="M5470 2780 c19 -13 30 -13 30 0 0 6 -10 10 -22 10 -19 0 -20 -2 -8
-10z"/>
<path d="M5515 2750 c3 -5 11 -10 16 -10 6 0 7 5 4 10 -3 6 -11 10 -16 10 -6
0 -7 -4 -4 -10z"/>
<path d="M5560 2720 c0 -5 5 -10 10 -10 6 0 10 5 10 10 0 6 -4 10 -10 10 -5 0
-10 -4 -10 -10z"/>
<path d="M5710 2620 c0 -5 7 -10 16 -10 8 0 12 5 9 10 -3 6 -10 10 -16 10 -5
0 -9 -4 -9 -10z"/>
<path d="M5760 2590 c0 -5 7 -10 15 -10 8 0 15 5 15 10 0 6 -7 10 -15 10 -8 0
-15 -4 -15 -10z"/>
<path d="M5815 2560 c3 -5 13 -10 21 -10 8 0 12 5 9 10 -3 6 -13 10 -21 10 -8
0 -12 -4 -9 -10z"/>
<path d="M5862 2538 c5 -15 28 -23 28 -10 0 5 -7 13 -16 16 -10 4 -14 1 -12
-6z"/>
<path d="M5900 2500 c0 -5 12 -10 26 -10 14 0 23 4 19 10 -3 6 -15 10 -26 10
-10 0 -19 -4 -19 -10z"/>
<path d="M6150 1860 c-19 -16 -53 -44 -74 -62 -22 -18 -54 -56 -73 -85 -18
-28 -42 -58 -54 -66 -20 -15 -59 -78 -59 -96 0 -6 -21 -40 -47 -78 -26 -37
-60 -88 -76 -111 -16 -24 -38 -66 -48 -93 l-19 -49 30 -42 c17 -22 30 -54 30
-69 0 -20 11 -38 37 -61 116 -104 193 -193 193 -226 0 -7 12 -31 26 -53 14
-23 36 -72 48 -111 15 -46 32 -77 50 -91 24 -20 27 -29 28 -92 2 -74 -6 -95
-55 -149 -16 -17 -44 -62 -63 -99 -18 -38 -42 -80 -53 -95 -10 -15 -33 -51
-50 -80 l-30 -52 574 0 575 0 -20 37 c-11 21 -20 46 -20 56 0 11 -6 31 -14 45
-12 23 -46 127 -86 267 -14 48 -16 171 -3 186 6 8 14 33 18 56 9 55 83 220
121 269 17 22 38 50 47 64 9 14 33 45 51 70 19 25 35 50 35 56 1 6 24 42 51
79 28 37 50 75 50 83 0 19 64 77 103 93 15 6 27 18 27 26 0 36 -32 85 -72 110
-24 15 -63 52 -87 83 -24 30 -60 66 -80 79 -20 13 -52 44 -72 70 -52 67 -92
84 -216 87 -56 2 -128 8 -161 13 -32 5 -130 15 -218 21 -156 11 -249 22 -289
34 -14 4 -31 -4 -55 -24z"/>
<path d="M4840 1345 c0 -8 5 -15 10 -15 6 0 10 7 10 15 0 8 -4 15 -10 15 -5 0
-10 -7 -10 -15z"/>
</g>
</svg>
